<svg width="559" height="298" viewBox="0 0 559 298" fill="none" xmlns="http://www.w3.org/2000/svg">
<path d="M97.5787 114.547C74.2849 114.547 55.3969 133.429 55.3969 156.728C55.3969 158.525 55.5437 160.292 55.7696 162.027C58.3848 182.818 76.0811 198.899 97.5731 198.899C119.647 198.899 137.744 181.931 139.58 160.321C139.676 159.14 139.755 157.937 139.755 156.723C139.761 133.429 120.878 114.547 97.5787 114.547ZM76.4652 140.834L85.062 149.436C84.3955 150.583 83.8702 151.82 83.5313 153.142H71.4099C72.0312 148.555 73.7879 144.364 76.4652 140.834ZM71.3534 160.445H83.5708C83.9154 161.744 84.4237 162.975 85.1015 164.105L76.4821 172.719C73.8105 169.217 72.0143 165.026 71.3534 160.445ZM93.9299 182.931C89.3604 182.293 85.2088 180.502 81.6956 177.853L90.2697 169.273C91.3994 169.934 92.6364 170.42 93.9299 170.759V182.931ZM93.9299 142.698C92.6025 143.048 91.3599 143.568 90.202 144.251L81.6108 135.66C85.141 132.977 89.3321 131.203 93.9299 130.565V142.698ZM101.233 130.554C105.831 131.192 110.028 132.977 113.552 135.654L104.967 144.246C103.814 143.562 102.561 143.042 101.239 142.692L101.233 130.554ZM101.233 182.92V170.765C102.532 170.42 103.758 169.94 104.888 169.273L113.468 177.853C109.954 180.502 105.797 182.282 101.233 182.92ZM118.698 172.758L110.05 164.099C110.728 162.964 111.276 161.75 111.62 160.451H123.742C123.098 165.015 121.375 169.239 118.698 172.758ZM111.637 153.142C111.293 151.82 110.773 150.583 110.107 149.436L118.715 140.834C121.375 144.364 123.132 148.555 123.764 153.147H111.637V153.142Z" fill="#3FC1C9"/>
<path d="M447.826 114.547C424.533 114.547 405.645 133.429 405.645 156.728C405.645 158.525 405.791 160.292 406.017 162.027C408.633 182.818 426.329 198.899 447.815 198.899C469.889 198.899 487.986 181.931 489.827 160.321C489.924 159.14 490.003 157.937 490.003 156.723C490.014 133.429 471.126 114.547 447.826 114.547ZM426.713 140.834L435.304 149.436C434.637 150.583 434.112 151.82 433.773 153.142H421.652C422.279 148.555 424.036 144.364 426.713 140.834ZM421.607 160.445H433.824C434.169 161.744 434.677 162.975 435.355 164.105L426.741 172.719C424.058 169.217 422.256 165.026 421.607 160.445ZM444.178 182.931C439.608 182.293 435.456 180.502 431.943 177.853L440.517 169.273C441.647 169.934 442.884 170.42 444.178 170.759V182.931ZM444.178 142.698C442.85 143.048 441.608 143.568 440.45 144.251L431.859 135.66C435.389 132.977 439.574 131.203 444.178 130.565V142.698ZM451.486 130.554C456.084 131.192 460.281 132.977 463.806 135.654L455.214 144.246C454.062 143.562 452.808 143.031 451.486 142.692V130.554ZM451.486 182.92V170.765C452.786 170.42 454.011 169.94 455.141 169.273L463.721 177.853C460.208 180.502 456.045 182.282 451.486 182.92ZM468.946 172.758L460.298 164.111C460.976 162.97 461.529 161.761 461.868 160.456H473.99C473.346 165.015 471.629 169.239 468.946 172.758ZM461.885 153.142C461.541 151.82 461.027 150.583 460.354 149.436L468.957 140.834C471.623 144.364 473.374 148.555 474.012 153.147H461.885V153.142Z" fill="#FC5185"/>
<path d="M549.113 92.7097V61.497C549.113 56.4756 545.464 52.2224 540.505 51.4486C528.604 49.5846 507.507 46.0657 498.029 43.1455C484.439 38.9544 431.932 16.7225 413.75 12.5484C395.563 8.37426 313.56 -13.9141 235.02 13.3109C221.729 17.9143 161.941 46.4949 126.786 61.3558C116.433 61.5817 13.9547 82.9437 8.4984 97.5843C3.04209 112.23 1.33065 119.336 0.325239 123.053C-0.680166 126.769 0.325239 144.556 7.93921 156.943C15.7 161.331 30.6399 164.28 47.9126 166.257C47.7149 165.201 47.5002 164.161 47.3647 163.094C47.0653 160.812 46.9241 158.728 46.9241 156.739C46.9241 128.808 69.6418 106.079 97.5785 106.079C125.515 106.079 148.233 128.803 148.233 156.739C148.233 158.174 148.137 159.597 148.03 160.998C147.764 164.133 147.199 167.178 146.38 170.109C146.42 170.109 146.516 170.109 146.516 170.109L397.958 165.048C397.845 164.399 397.698 163.755 397.613 163.094C397.314 160.823 397.172 158.733 397.172 156.739C397.172 128.808 419.89 106.085 447.827 106.085C475.764 106.085 498.487 128.803 498.487 156.739C498.487 156.847 498.476 156.937 498.47 157.039L499.543 156.948L542.533 148.854C542.533 148.854 558.998 140.088 558.998 115.97C559.003 99.8831 549.113 92.7097 549.113 92.7097ZM299.688 63.118L205.784 65.9931C207.512 51.923 199.181 48.7656 199.181 48.7656C236.511 14.8811 311.747 13.7345 311.747 13.7345L299.688 63.118ZM405.074 58.8197L319.502 61.6947L327.257 13.7402C371.484 13.164 396.749 22.9244 396.749 22.9244L409.384 43.3149L405.074 58.8197ZM453.317 58.5259H429.475L405.639 25.7938C423.522 32.9107 437.835 39.9259 446.358 44.3599C451.532 47.0485 454.356 52.7929 453.317 58.5259Z" fill="#364F6B"/>
<path d="M33.2686 257.712C24.6547 257.712 17.533 255.711 11.9034 251.71C6.34171 247.64 3.32347 241.705 2.84868 233.905H26.859C27.1982 238.043 29.0295 240.111 32.3529 240.111C33.5738 240.111 34.5912 239.84 35.4051 239.297C36.2868 238.687 36.7277 237.771 36.7277 236.551C36.7277 234.855 35.812 233.498 33.9807 232.481C32.1494 231.396 29.3008 230.175 25.4347 228.818C20.8225 227.191 16.9904 225.597 13.9382 224.037C10.9539 222.477 8.37649 220.204 6.20606 217.22C4.03564 214.236 2.98434 210.404 3.05216 205.724C3.05216 201.044 4.23911 197.076 6.61302 193.82C9.05475 190.497 12.3443 187.987 16.4817 186.292C20.6869 184.596 25.4008 183.748 30.6234 183.748C39.4407 183.748 46.4268 185.783 51.5815 189.852C56.8041 193.922 59.5511 199.653 59.8224 207.046H35.5068C35.439 205.012 34.9303 203.553 33.9807 202.672C33.0312 201.79 31.8781 201.349 30.5216 201.349C29.5721 201.349 28.7921 201.688 28.1816 202.366C27.5712 202.977 27.266 203.858 27.266 205.012C27.266 206.639 28.1477 207.996 29.9112 209.081C31.7425 210.098 34.6251 211.353 38.559 212.845C43.1033 214.541 46.8337 216.169 49.7502 217.729C52.7346 219.289 55.312 221.459 57.4824 224.24C59.6528 227.021 60.738 230.514 60.738 234.719C60.738 239.128 59.6528 243.096 57.4824 246.623C55.312 250.082 52.1581 252.795 48.0207 254.762C43.8833 256.729 38.9659 257.712 33.2686 257.712ZM91.2597 202.977V211.828H113.642V228.818H91.2597V238.992H116.694V257H68.6736V184.969H116.694V202.977H91.2597ZM161.425 257L147.894 231.158H147.792V257H125.206V184.969H158.78C164.613 184.969 169.598 186.02 173.736 188.123C177.873 190.158 180.959 192.972 182.994 196.567C185.096 200.094 186.148 204.096 186.148 208.572C186.148 213.388 184.791 217.661 182.078 221.391C179.433 225.122 175.601 227.801 170.582 229.429L186.249 257H161.425ZM147.792 216.101H156.745C158.916 216.101 160.543 215.626 161.629 214.677C162.714 213.659 163.257 212.099 163.257 209.997C163.257 208.098 162.68 206.605 161.527 205.52C160.442 204.435 158.848 203.892 156.745 203.892H147.792V216.101ZM252.27 209.691C252.27 214.236 251.219 218.373 249.116 222.104C247.013 225.766 243.893 228.683 239.756 230.853C235.687 233.024 230.735 234.109 224.902 234.109H215.949V257H193.363V184.969H224.902C233.72 184.969 240.468 187.207 245.148 191.684C249.896 196.16 252.27 202.163 252.27 209.691ZM222.359 216.305C227.039 216.305 229.379 214.1 229.379 209.691C229.379 205.283 227.039 203.078 222.359 203.078H215.949V216.305H222.359Z" fill="#3FC1C9"/>
<path d="M274.687 220.883C274.687 213.761 276.111 207.419 278.96 201.858C281.876 196.296 286.014 191.989 291.372 188.937C296.73 185.817 303.038 184.257 310.295 184.257C316.535 184.257 322.097 185.444 326.98 187.818C331.932 190.124 335.933 193.413 338.986 197.686C342.106 201.959 344.174 206.945 345.192 212.642H321.385C320.3 210.268 318.74 208.437 316.705 207.148C314.738 205.791 312.466 205.113 309.888 205.113C306.09 205.113 303.072 206.538 300.834 209.386C298.663 212.235 297.578 216.067 297.578 220.883C297.578 225.698 298.663 229.531 300.834 232.379C303.072 235.228 306.09 236.652 309.888 236.652C312.466 236.652 314.738 236.008 316.705 234.719C318.74 233.363 320.3 231.497 321.385 229.124H345.192C344.174 234.821 342.106 239.806 338.986 244.079C335.933 248.352 331.932 251.676 326.98 254.05C322.097 256.356 316.535 257.509 310.295 257.509C303.038 257.509 296.73 255.983 291.372 252.93C286.014 249.81 281.876 245.47 278.96 239.908C276.111 234.346 274.687 228.004 274.687 220.883ZM399.513 246.114H375.503L371.942 257H348.237L374.587 184.969H400.632L426.881 257H403.074L399.513 246.114ZM394.019 229.124L387.508 209.081L380.996 229.124H394.019ZM468.231 257L454.7 231.158H454.598V257H432.012V184.969H465.586C471.419 184.969 476.404 186.02 480.541 188.123C484.679 190.158 487.765 192.972 489.8 196.567C491.902 200.094 492.954 204.096 492.954 208.572C492.954 213.388 491.597 217.661 488.884 221.391C486.239 225.122 482.407 227.801 477.388 229.429L493.055 257H468.231ZM454.598 216.101H463.551C465.722 216.101 467.349 215.626 468.435 214.677C469.52 213.659 470.062 212.099 470.062 209.997C470.062 208.098 469.486 206.605 468.333 205.52C467.248 204.435 465.654 203.892 463.551 203.892H454.598V216.101ZM528.351 257.712C519.737 257.712 512.615 255.711 506.986 251.71C501.424 247.64 498.406 241.705 497.931 233.905H521.941C522.28 238.043 524.112 240.111 527.435 240.111C528.656 240.111 529.673 239.84 530.487 239.297C531.369 238.687 531.81 237.771 531.81 236.551C531.81 234.855 530.894 233.498 529.063 232.481C527.232 231.396 524.383 230.175 520.517 228.818C515.905 227.191 512.073 225.597 509.02 224.037C506.036 222.477 503.459 220.204 501.288 217.22C499.118 214.236 498.066 210.404 498.134 205.724C498.134 201.044 499.321 197.076 501.695 193.82C504.137 190.497 507.426 187.987 511.564 186.292C515.769 184.596 520.483 183.748 525.706 183.748C534.523 183.748 541.509 185.783 546.664 189.852C551.886 193.922 554.633 199.653 554.905 207.046H530.589C530.521 205.012 530.012 203.553 529.063 202.672C528.113 201.79 526.96 201.349 525.604 201.349C524.654 201.349 523.874 201.688 523.264 202.366C522.653 202.977 522.348 203.858 522.348 205.012C522.348 206.639 523.23 207.996 524.993 209.081C526.825 210.098 529.707 211.353 533.641 212.845C538.185 214.541 541.916 216.169 544.832 217.729C547.817 219.289 550.394 221.459 552.565 224.24C554.735 227.021 555.82 230.514 555.82 234.719C555.82 239.128 554.735 243.096 552.565 246.623C550.394 250.082 547.24 252.795 543.103 254.762C538.965 256.729 534.048 257.712 528.351 257.712Z" fill="#FC5185"/>
</svg>
